<?xml version="1.0" encoding="utf-8"?>
<!-- Generator: Adobe Illustrator 16.0.0, SVG Export Plug-In . SVG Version: 6.00 Build 0)  -->
<!DOCTYPE svg PUBLIC "-//W3C//DTD SVG 1.1//EN" "http://www.w3.org/Graphics/SVG/1.1/DTD/svg11.dtd">
<svg version="1.1" id="Layer_1" xmlns="http://www.w3.org/2000/svg" xmlns:xlink="http://www.w3.org/1999/xlink" x="0px" y="0px"
	 width="314.049px" height="101.725px" viewBox="0 0 314.049 101.725" enable-background="new 0 0 314.049 101.725"
	 xml:space="preserve">
<g opacity="0.5">
	<g>
		<path fill="#FFFFFF" d="M314.049,62.717h-155.7c-1.39-7.738-5.382-14.193-8.885-19.156c8.583-7.939,18.024-17.166,26.18-24.462
			c12.23-10.944,18.024-14.378,22.745-13.948c2.79,0.215,3.863,2.575,3.434,5.15c-0.644,3.434-0.858,7.295,2.575,7.939
			c4.077,0.858,8.369-3.648,9.228-8.154C214.912,4.078,210.835,0,204.183,0h-0.215c-9.441,0-18.668,6.438-29.827,16.523
			c-8.154,7.51-17.166,16.952-25.965,24.892c-3.219-4.507-6.866-9.87-8.583-14.377c5.364-3.647,14.378-8.798,16.522-15.45
			c1.932-6.223-1.716-10.086-6.223-10.3c-10.943-0.644-19.527,8.368-21.244,15.665c-0.857,4.076-0.214,9.227,0.859,12.875
			c-4.292,2.146-10.086,4.936-14.377,7.51c-9.228,5.15-16.523,11.373-17.811,18.24c-0.61,3.251,0.233,5.579,1.804,7.139H0v1h100.385
			c1.64,1.035,3.7,1.518,5.732,1.518c2.965,0.064,6.28-0.5,9.721-1.518h27.535c0.562,3.715,0.557,7.567-0.133,11.603
			c-0.831,4.461-2.679,8.732-5.271,12.397H50v1h87.23c-4.766,6.196-11.738,10.422-19.525,10.422c-6.438,0-9.871-2.36-11.588-4.507
			c-1.287-1.717-1.072-2.789-1.717-2.789c-0.643,0.429-0.214,2.146,0.43,3.647c1.073,2.146,5.15,6.224,13.305,6.224
			c13.515,0.284,25.232-4.904,32.6-12.997h113.314v-1H151.614c3.278-3.894,5.583-8.398,6.647-13.256
			c0.749-3.807,0.737-7.389,0.241-10.744h155.546V62.717z M138.734,16.738c1.287-6.223,6.438-12.018,10.515-12.018h0.215
			c3.219,0,4.721,3.005,3.219,6.867c-1.717,5.365-9.442,10.729-13.519,13.305C138.52,22.531,138.091,20.172,138.734,16.738z
			 M117.705,58.152c-4.721,0-6.438-2.359-6.438-5.793c0.215-3.648,3.648-8.154,7.082-11.373c3.004-2.79,7.939-6.438,11.802-9.013
			c1.716,5.149,5.149,12.017,7.939,16.952c-8.368,6.867-16.094,9.227-20.171,9.227H117.705z M118.864,62.717
			c7.128-2.596,14.519-6.915,20.3-11.646c1.932,3.757,3.327,7.62,4.051,11.646H118.864z"/>
	</g>
</g>
<g>
	<g>
		<path fill="#FFFFFF" d="M1.99,38.962c0-2.048,0.18-3.977,0.54-5.783c0.359-1.806,0.876-3.41,1.549-4.813
			c0.673-1.401,1.517-2.508,2.53-3.316s2.128-1.214,3.341-1.214c0.701,0,1.351,0.176,1.947,0.526s1.227,0.836,1.891,1.456
			c0.436,0.404,0.758,0.606,0.967,0.606c0.246,0,0.454-0.256,0.625-0.769l0.512-1.496h0.938v12.416h-0.91
			c-0.417-3.479-1.165-6.255-2.246-8.331c-1.08-2.076-2.321-3.114-3.724-3.114c-0.91,0-1.659,0.62-2.246,1.86
			c-0.588,1.24-0.881,3.209-0.881,5.904v12.134c0,1.402,0.104,2.622,0.313,3.66c0.208,1.038,0.479,1.847,0.811,2.426
			c0.331,0.581,0.691,1.005,1.08,1.274c0.388,0.27,0.791,0.404,1.208,0.404c2.236,0,3.913-1.469,5.032-4.408
			c0.549-1.429,0.919-3.479,1.108-6.147h1.023c-0.152,2.696-0.54,4.935-1.166,6.714c-0.587,1.617-1.389,2.878-2.402,3.781
			s-2.213,1.354-3.596,1.354c-1.062,0-2.047-0.282-2.957-0.849c-0.909-0.566-1.687-1.335-2.331-2.306s-1.193-2.096-1.648-3.377
			c-0.455-1.28-0.787-2.649-0.995-4.105C2.094,41.996,1.99,40.499,1.99,38.962z"/>
		<path fill="#FFFFFF" d="M20.525,53.36v-1.294h1.99c0.265,0,0.444-0.067,0.54-0.202c0.095-0.135,0.142-0.391,0.142-0.769V26.829
			c0-0.377-0.047-0.633-0.142-0.769c-0.096-0.135-0.275-0.202-0.54-0.202h-1.99v-1.294h9.374c2.083,0,3.762,0.634,5.034,1.9
			c1.273,1.268,1.91,3.007,1.91,5.218c0,1.86-0.511,3.336-1.529,4.429c-1.019,1.092-2.348,1.759-3.986,2.002v0.283
			c0.72,0.188,1.341,0.444,1.862,0.768c0.521,0.324,0.995,0.763,1.421,1.314c0.427,0.554,0.754,1.288,0.981,2.205
			s0.341,1.981,0.341,3.194v4.489c0,1.133,0.35,1.699,1.05,1.699c0.404,0,0.7-0.58,0.888-1.739c0.187-1.159,0.28-2.574,0.28-4.247
			h0.909c0,0.998-0.028,1.888-0.085,2.67s-0.161,1.53-0.313,2.244c-0.152,0.715-0.352,1.314-0.598,1.8s-0.573,0.862-0.98,1.133
			c-0.408,0.269-0.877,0.404-1.407,0.404c-1.213,0-2.175-0.513-2.886-1.537s-1.065-2.534-1.065-4.529v-5.016
			c0-1.294-0.224-2.386-0.668-3.275c-0.446-0.89-1.133-1.335-2.062-1.335h-1.592v12.457c0,0.378,0.047,0.634,0.142,0.769
			s0.274,0.202,0.54,0.202h2.502v1.294H20.525z M27.405,37.345h1.904c0.512,0,0.947-0.148,1.308-0.445
			c0.36-0.296,0.64-0.728,0.839-1.294s0.341-1.187,0.427-1.86c0.085-0.674,0.128-1.47,0.128-2.387c0-1.833-0.199-3.208-0.598-4.125
			c-0.397-0.916-1.099-1.375-2.104-1.375h-1.223c-0.266,0-0.445,0.067-0.54,0.202c-0.095,0.136-0.142,0.392-0.142,0.769V37.345z"/>
		<path fill="#FFFFFF" d="M41.278,53.36v-1.294h1.99c0.265,0,0.444-0.067,0.54-0.202c0.095-0.135,0.142-0.391,0.142-0.769V26.829
			c0-0.377-0.047-0.633-0.142-0.769c-0.096-0.135-0.275-0.202-0.54-0.202h-1.99v-1.294h9.552v1.294h-1.99
			c-0.266,0-0.445,0.067-0.54,0.202c-0.095,0.136-0.142,0.392-0.142,0.769v24.267c0,0.378,0.047,0.634,0.142,0.769
			s0.274,0.202,0.54,0.202h1.99v1.294H41.278z"/>
		<path fill="#FFFFFF" d="M54.582,40.984h0.91c0.187,1.511,0.484,2.967,0.896,4.368c0.411,1.402,0.887,2.656,1.429,3.761
			c0.541,1.106,1.176,1.996,1.904,2.67c0.728,0.674,1.475,1.011,2.24,1.011c0.665,0,1.24-0.107,1.726-0.323
			c0.484-0.216,0.865-0.485,1.141-0.809c0.275-0.324,0.494-0.701,0.656-1.133c0.161-0.431,0.266-0.835,0.313-1.213
			c0.047-0.378,0.071-0.755,0.071-1.133c0-0.701-0.173-1.335-0.518-1.901c-0.346-0.565-0.826-1.146-1.444-1.738l-6.083-5.582
			c-2.123-1.94-3.185-4.395-3.185-7.36c0-1.348,0.149-2.534,0.446-3.56c0.298-1.023,0.712-1.833,1.242-2.426
			c0.529-0.593,1.11-1.038,1.743-1.335s1.312-0.445,2.037-0.445c1.331,0,2.681,0.675,4.05,2.022
			c0.456,0.485,0.798,0.729,1.026,0.729c0.342,0,0.551-0.311,0.627-0.931l0.171-1.092h0.91l0.284,10.516h-0.909
			c-0.532-2.858-1.388-5.23-2.566-7.118s-2.452-2.831-3.821-2.831c-1.978,0-2.966,1.129-2.966,3.386
			c0,1.532,0.886,3.078,2.656,4.637l6.116,5.61c0.746,0.732,1.342,1.742,1.788,3.029c0.446,1.288,0.669,2.609,0.669,3.964
			c0,1.025-0.134,2.022-0.399,2.993s-0.646,1.86-1.139,2.669c-0.494,0.809-1.159,1.456-1.994,1.941
			c-0.836,0.485-1.776,0.728-2.82,0.728c-1.578,0-2.881-0.593-3.907-1.779c-0.418-0.485-0.723-0.809-0.912-0.971
			c-0.189-0.161-0.365-0.242-0.527-0.242c-0.383,0-0.609,0.459-0.679,1.375l-0.131,1.294h-0.881L54.582,40.984z"/>
		<path fill="#FFFFFF" d="M71.412,53.36v-1.294h1.99c0.265,0,0.444-0.067,0.54-0.202c0.095-0.135,0.142-0.391,0.142-0.769V26.829
			c0-0.377-0.047-0.633-0.142-0.769c-0.096-0.135-0.275-0.202-0.54-0.202h-1.99v-1.294h10.29c2.043,0,3.71,0.701,5.001,2.103
			c1.291,1.402,1.937,3.209,1.937,5.42c0,2.238-0.653,4.078-1.958,5.521c-1.307,1.442-2.992,2.164-5.058,2.164h-3.332v11.324
			c0,0.378,0.047,0.634,0.142,0.769s0.274,0.202,0.54,0.202h2.502v1.294H71.412z M78.292,38.477h2.814
			c0.512,0,0.947-0.161,1.308-0.485c0.359-0.323,0.64-0.788,0.839-1.395c0.198-0.607,0.341-1.274,0.426-2.002
			c0.086-0.729,0.128-1.563,0.128-2.508c0-1.968-0.199-3.498-0.597-4.591c-0.398-1.092-1.1-1.638-2.104-1.638h-2.133
			c-0.266,0-0.445,0.067-0.54,0.202c-0.095,0.136-0.142,0.392-0.142,0.769V38.477z"/>
		<path fill="#FFFFFF" d="M91.369,53.36v-1.294h1.99c0.265,0,0.444-0.067,0.54-0.202c0.095-0.135,0.142-0.391,0.142-0.769V26.829
			c0-0.377-0.047-0.633-0.142-0.769c-0.096-0.135-0.275-0.202-0.54-0.202h-1.99v-1.294h9.552v1.294h-1.99
			c-0.266,0-0.445,0.067-0.54,0.202c-0.095,0.136-0.142,0.392-0.142,0.769v24.267c0,0.378,0.047,0.634,0.142,0.769
			s0.274,0.202,0.54,0.202h1.99v1.294H91.369z"/>
		<path fill="#FFFFFF" d="M103.479,53.36v-1.294c1.023,0,1.877-0.392,2.559-1.175c0.683-0.783,1.023-1.796,1.023-3.038V30.558
			c0-0.297-0.017-0.513-0.051-0.647c-0.033-0.136-0.109-0.338-0.227-0.608l-1.173-2.391c-0.189-0.378-0.394-0.648-0.611-0.81
			c-0.218-0.162-0.554-0.243-1.009-0.243h-0.512v-1.294h6.32l9.088,18.525V30.075c0-1.243-0.341-2.257-1.023-3.041
			c-0.682-0.783-1.535-1.176-2.559-1.176v-1.294h8.302v1.294c-1.023,0-1.876,0.392-2.559,1.173
			c-0.683,0.782-1.023,1.794-1.023,3.033v24.023h-1.08L108.322,32.44h-0.124v15.417c0,1.241,0.341,2.253,1.023,3.035
			c0.682,0.782,1.535,1.174,2.559,1.174v1.294H103.479z"/>
		<path fill="#FFFFFF" d="M146.946,53.36v-1.294c0.834,0,1.535-0.304,2.104-0.91c0.568-0.606,0.853-1.517,0.853-2.73V26.829
			c0-0.377-0.048-0.633-0.143-0.769c-0.095-0.135-0.274-0.202-0.54-0.202h-2.274v-1.294h6.751l5.229,19.907l3.826-19.907h7.221
			v1.294h-1.99c-0.266,0-0.445,0.067-0.54,0.202c-0.095,0.136-0.142,0.392-0.142,0.769v24.267c0,0.378,0.047,0.634,0.142,0.769
			s0.274,0.202,0.54,0.202h1.99v1.294h-9.552v-1.294h1.99c0.265,0,0.444-0.068,0.54-0.203c0.095-0.135,0.142-0.392,0.142-0.771
			V28.004l-4.995,25.842h-1.06l-5.8-22.204h-0.199v16.784c0,1.214,0.284,2.124,0.854,2.73c0.568,0.606,1.27,0.91,2.104,0.91v1.294
			H146.946z"/>
		<path fill="#FFFFFF" d="M172.816,25.858v-1.294h9.211v1.294h-1.82c-0.266,0-0.445,0.067-0.54,0.202
			c-0.095,0.136-0.142,0.392-0.142,0.769v18.523c0,2.48,0.331,4.287,0.995,5.419c0.663,1.133,1.687,1.699,3.07,1.699
			c1.402,0,2.563-0.694,3.482-2.083c0.919-1.389,1.379-3.066,1.379-5.035V29.498c0-1.213-0.285-2.123-0.854-2.729
			s-1.27-0.91-2.104-0.91v-1.294h7.051v1.294c-0.835,0-1.535,0.304-2.104,0.91c-0.568,0.606-0.853,1.517-0.853,2.729v15.45
			c0,2.615-0.611,4.792-1.834,6.531c-1.222,1.739-2.876,2.608-4.96,2.608c-1.043,0-1.99-0.188-2.844-0.565
			c-0.853-0.378-1.563-0.89-2.132-1.537s-1.042-1.416-1.421-2.306c-0.38-0.89-0.654-1.826-0.825-2.811
			c-0.17-0.984-0.256-2.016-0.256-3.094V26.829c0-0.377-0.047-0.633-0.142-0.769c-0.096-0.135-0.275-0.202-0.54-0.202H172.816z"/>
		<path fill="#FFFFFF" d="M195.218,53.36v-1.294h1.99c0.246,0,0.421-0.088,0.525-0.263c0.104-0.176,0.156-0.451,0.156-0.829V26.829
			c0-0.377-0.047-0.633-0.142-0.769c-0.096-0.135-0.275-0.202-0.54-0.202h-1.99v-1.294h9.552v1.294h-1.99
			c-0.266,0-0.445,0.067-0.54,0.202c-0.095,0.136-0.142,0.392-0.142,0.769v24.146c0,0.378,0.052,0.653,0.156,0.829
			c0.104,0.175,0.279,0.263,0.525,0.263h2.872c0.436,0,0.861-0.176,1.279-0.526c0.416-0.35,0.776-0.781,1.08-1.294
			c0.303-0.512,0.587-1.105,0.853-1.779s0.479-1.287,0.64-1.841c0.161-0.552,0.299-1.085,0.412-1.597
			c0.095-0.432,0.199-0.998,0.313-1.699c0.114-0.7,0.209-1.28,0.285-1.739l0.113-0.688h0.91l-0.228,12.457H195.218z"/>
		<path fill="#FFFFFF" d="M214.265,53.36v-1.294h1.99c0.265,0,0.444-0.067,0.54-0.202c0.095-0.135,0.142-0.391,0.142-0.769V26.829
			c0-0.377-0.047-0.633-0.142-0.769c-0.096-0.135-0.275-0.202-0.54-0.202h-1.99v-1.294h9.977c1.132,0,2.18,0.283,3.143,0.85
			c0.962,0.565,1.735,1.389,2.321,2.467c0.585,1.078,0.878,2.265,0.878,3.559c0,0.917-0.142,1.767-0.422,2.548
			c-0.281,0.783-0.655,1.443-1.123,1.982c-0.469,0.539-0.965,0.984-1.489,1.334c-0.524,0.352-1.096,0.647-1.714,0.891v0.242
			c0.657,0.136,1.315,0.384,1.974,0.748c0.657,0.364,1.275,0.829,1.854,1.396s1.047,1.281,1.405,2.144
			c0.359,0.863,0.539,1.793,0.539,2.791c0,1.645-0.319,3.067-0.957,4.267c-0.638,1.2-1.459,2.097-2.464,2.689
			c-1.006,0.594-2.136,0.89-3.393,0.89H214.265z M221.145,37.668h2.615c0.53,0,0.976-0.147,1.336-0.444s0.626-0.729,0.796-1.295
			c0.171-0.565,0.294-1.199,0.37-1.9c0.075-0.701,0.113-1.563,0.113-2.589c0-1.779-0.218-3.154-0.653-4.125
			c-0.437-0.971-1.033-1.456-1.791-1.456h-2.104c-0.266,0-0.445,0.067-0.54,0.202c-0.095,0.136-0.142,0.392-0.142,0.769V37.668z
			 M221.145,51.096c0,0.378,0.047,0.634,0.142,0.769s0.274,0.202,0.54,0.202h1.934c0.492,0,0.914-0.102,1.265-0.304
			s0.663-0.539,0.938-1.011c0.274-0.472,0.479-1.146,0.611-2.022c0.132-0.876,0.199-1.947,0.199-3.215s-0.067-2.339-0.199-3.216
			c-0.133-0.876-0.337-1.55-0.611-2.022c-0.275-0.471-0.588-0.809-0.938-1.011s-0.772-0.304-1.265-0.304h-2.615V51.096z"/>
		<path fill="#FFFFFF" d="M234.449,53.36v-1.294h1.99c0.265,0,0.444-0.067,0.54-0.202c0.095-0.135,0.142-0.391,0.142-0.769V26.829
			c0-0.377-0.047-0.633-0.142-0.769c-0.096-0.135-0.275-0.202-0.54-0.202h-1.99v-1.294h15.977l0.171,9.383h-0.91
			c-0.189-1.726-0.568-3.262-1.137-4.61c-0.929-2.318-2.066-3.479-3.411-3.479h-3.128c-0.266,0-0.445,0.067-0.54,0.202
			c-0.095,0.136-0.142,0.392-0.142,0.769v11.162h1.449c0.512,0,0.99-0.303,1.437-0.909c0.444-0.607,0.791-1.335,1.037-2.185
			c0.246-0.849,0.369-1.678,0.369-2.487h0.91v12.659h-0.91c0-0.809-0.123-1.645-0.369-2.508c-0.246-0.862-0.593-1.598-1.037-2.204
			c-0.446-0.606-0.925-0.91-1.437-0.91h-1.449v11.648c0,0.378,0.047,0.634,0.142,0.769s0.274,0.202,0.54,0.202h3.1
			c0.549,0,1.065-0.188,1.549-0.566c0.483-0.377,0.896-0.876,1.236-1.496c0.342-0.62,0.626-1.227,0.854-1.82
			c0.228-0.593,0.416-1.214,0.568-1.86c0.113-0.431,0.223-0.997,0.327-1.699c0.104-0.7,0.175-1.28,0.213-1.738l0.057-0.688h0.91
			l-0.171,11.162H234.449z"/>
		<path fill="#FFFFFF" d="M254.064,53.36v-1.294h1.99c0.265,0,0.444-0.067,0.54-0.202c0.095-0.135,0.142-0.391,0.142-0.769V26.829
			c0-0.377-0.047-0.633-0.142-0.769c-0.096-0.135-0.275-0.202-0.54-0.202h-1.99v-1.294h9.374c2.083,0,3.762,0.634,5.034,1.9
			c1.273,1.268,1.91,3.007,1.91,5.218c0,1.86-0.511,3.336-1.529,4.429c-1.019,1.092-2.348,1.759-3.986,2.002v0.283
			c0.72,0.188,1.341,0.444,1.862,0.768c0.521,0.324,0.995,0.763,1.421,1.314c0.427,0.554,0.754,1.288,0.981,2.205
			s0.341,1.981,0.341,3.194v4.489c0,1.133,0.35,1.699,1.05,1.699c0.404,0,0.7-0.58,0.888-1.739c0.187-1.159,0.28-2.574,0.28-4.247
			h0.909c0,0.998-0.028,1.888-0.085,2.67s-0.161,1.53-0.313,2.244c-0.152,0.715-0.352,1.314-0.598,1.8s-0.573,0.862-0.98,1.133
			c-0.408,0.269-0.877,0.404-1.407,0.404c-1.213,0-2.175-0.513-2.886-1.537s-1.065-2.534-1.065-4.529v-5.016
			c0-1.294-0.224-2.386-0.668-3.275c-0.446-0.89-1.133-1.335-2.062-1.335h-1.592v12.457c0,0.378,0.047,0.634,0.142,0.769
			s0.274,0.202,0.54,0.202h2.502v1.294H254.064z M260.944,37.345h1.904c0.512,0,0.947-0.148,1.308-0.445
			c0.36-0.296,0.64-0.728,0.839-1.294s0.341-1.187,0.427-1.86c0.085-0.674,0.128-1.47,0.128-2.387c0-1.833-0.199-3.208-0.598-4.125
			c-0.397-0.916-1.099-1.375-2.104-1.375h-1.223c-0.266,0-0.445,0.067-0.54,0.202c-0.095,0.136-0.142,0.392-0.142,0.769V37.345z"/>
		<path fill="#FFFFFF" d="M274.817,53.36v-1.294h1.99c0.265,0,0.444-0.067,0.54-0.202c0.095-0.135,0.142-0.391,0.142-0.769V26.829
			c0-0.377-0.047-0.633-0.142-0.769c-0.096-0.135-0.275-0.202-0.54-0.202h-1.99v-1.294h9.374c2.083,0,3.762,0.634,5.034,1.9
			c1.273,1.268,1.91,3.007,1.91,5.218c0,1.86-0.511,3.336-1.529,4.429c-1.019,1.092-2.348,1.759-3.986,2.002v0.283
			c0.72,0.188,1.341,0.444,1.862,0.768c0.521,0.324,0.995,0.763,1.421,1.314c0.427,0.554,0.754,1.288,0.981,2.205
			s0.341,1.981,0.341,3.194v4.489c0,1.133,0.35,1.699,1.05,1.699c0.404,0,0.7-0.58,0.888-1.739c0.187-1.159,0.28-2.574,0.28-4.247
			h0.909c0,0.998-0.028,1.888-0.085,2.67s-0.161,1.53-0.313,2.244c-0.152,0.715-0.352,1.314-0.598,1.8s-0.573,0.862-0.98,1.133
			c-0.408,0.269-0.877,0.404-1.407,0.404c-1.213,0-2.175-0.513-2.886-1.537s-1.065-2.534-1.065-4.529v-5.016
			c0-1.294-0.224-2.386-0.668-3.275c-0.446-0.89-1.133-1.335-2.062-1.335h-1.592v12.457c0,0.378,0.047,0.634,0.142,0.769
			s0.274,0.202,0.54,0.202h2.502v1.294H274.817z M281.697,37.345h1.904c0.512,0,0.947-0.148,1.308-0.445
			c0.36-0.296,0.64-0.728,0.839-1.294s0.341-1.187,0.427-1.86c0.085-0.674,0.128-1.47,0.128-2.387c0-1.833-0.199-3.208-0.598-4.125
			c-0.397-0.916-1.099-1.375-2.104-1.375h-1.223c-0.266,0-0.445,0.067-0.54,0.202c-0.095,0.136-0.142,0.392-0.142,0.769V37.345z"/>
		<path fill="#FFFFFF" d="M294.435,25.858v-1.294h8.926v1.294h-0.817c-0.273,0-0.478,0.137-0.611,0.409
			c-0.136,0.272-0.202,0.572-0.202,0.899c0,0.436,0.057,0.817,0.17,1.145l3.763,11.65l2.632-9.339
			c0.268-0.861,0.401-1.628,0.401-2.301c0-0.674-0.124-1.252-0.371-1.737c-0.248-0.483-0.637-0.727-1.167-0.727h-0.796v-1.294h7.063
			v1.294h-0.854c-0.645,0-1.185,0.29-1.62,0.87c-0.437,0.58-0.758,1.273-0.967,2.082l-3.838,13.307v8.979
			c0,0.378,0.047,0.634,0.142,0.769s0.274,0.202,0.54,0.202h1.82v1.294h-9.211v-1.294h1.819c0.265,0,0.445-0.067,0.54-0.202
			s0.142-0.391,0.142-0.769V42.48l-4.832-14.843c-0.228-0.7-0.465-1.173-0.711-1.415c-0.246-0.243-0.568-0.364-0.967-0.364H294.435z
			"/>
	</g>
	<g>
		<g>
			<path fill="#FFFFFF" d="M38.207,69.558v-0.441h4.383v0.441h-0.394c-0.126,0-0.228,0.046-0.305,0.139
				c-0.076,0.093-0.114,0.209-0.114,0.348c0,0.103,0.021,0.219,0.066,0.349l1.725,5.336l1.278-4.445l-0.296-0.927
				c-0.1-0.303-0.229-0.512-0.386-0.627c-0.158-0.114-0.387-0.172-0.685-0.172h-0.23v-0.441h4.438v0.441h-0.665
				c-0.117,0-0.219,0.041-0.305,0.124s-0.129,0.176-0.129,0.277c0,0.092,0.014,0.193,0.041,0.304l1.717,5.372l1.241-4.535
				c0.063-0.192,0.096-0.44,0.096-0.743c0-0.202-0.057-0.386-0.17-0.551c-0.113-0.166-0.296-0.248-0.549-0.248h-0.679v-0.441h3.665
				v0.441h-0.42c-0.605,0-1.039,0.418-1.302,1.254l-2.29,8.367h-0.569l-2.22-6.988l-2.01,6.988h-0.569l-2.82-8.726
				c-0.1-0.303-0.246-0.528-0.44-0.675c-0.194-0.147-0.477-0.221-0.848-0.221H38.207z"/>
			<path fill="#FFFFFF" d="M59.11,75.939c-0.217-0.634-0.325-1.272-0.325-1.916c0-0.643,0.108-1.282,0.325-1.916
				s0.506-1.186,0.867-1.654s0.791-0.85,1.288-1.144s1.008-0.441,1.532-0.441c0.523,0,1.034,0.147,1.531,0.441
				s0.927,0.675,1.288,1.144s0.65,1.021,0.867,1.654s0.325,1.273,0.325,1.916c0,0.644-0.108,1.282-0.325,1.916
				s-0.506,1.186-0.867,1.654s-0.791,0.85-1.288,1.144s-1.008,0.441-1.531,0.441c-0.524,0-1.035-0.147-1.532-0.441
				s-0.927-0.675-1.288-1.144S59.327,76.573,59.11,75.939z M61.09,76.091c0,0.947,0.148,1.625,0.447,2.033
				c0.298,0.409,0.718,0.613,1.261,0.613c0.542,0,0.962-0.204,1.261-0.613c0.298-0.408,0.447-1.086,0.447-2.033v-4.135
				c0-0.946-0.149-1.624-0.447-2.033c-0.299-0.409-0.719-0.613-1.261-0.613c-0.543,0-0.963,0.204-1.261,0.613
				c-0.299,0.409-0.447,1.087-0.447,2.033V76.091z"/>
			<path fill="#FFFFFF" d="M74.835,78.931v-0.441h0.948c0.127,0,0.213-0.022,0.258-0.068s0.067-0.134,0.067-0.262v-8.271
				c0-0.129-0.022-0.216-0.067-0.263c-0.045-0.046-0.131-0.068-0.258-0.068h-0.948v-0.441h4.47c0.993,0,1.793,0.216,2.4,0.648
				c0.607,0.432,0.911,1.024,0.911,1.777c0,0.635-0.243,1.138-0.729,1.51s-1.12,0.6-1.9,0.683v0.096
				c0.343,0.064,0.639,0.152,0.888,0.263c0.248,0.11,0.475,0.26,0.678,0.447c0.203,0.188,0.359,0.439,0.468,0.752
				s0.162,0.675,0.162,1.089v1.529c0,0.387,0.167,0.579,0.501,0.579c0.192,0,0.334-0.197,0.423-0.593
				c0.089-0.395,0.134-0.877,0.134-1.447h0.434c0,0.341-0.014,0.644-0.04,0.91c-0.027,0.267-0.077,0.521-0.149,0.765
				c-0.072,0.244-0.167,0.448-0.285,0.613c-0.117,0.166-0.273,0.294-0.467,0.387c-0.195,0.092-0.419,0.138-0.672,0.138
				c-0.578,0-1.037-0.175-1.376-0.524c-0.339-0.349-0.508-0.863-0.508-1.543v-1.71c0-0.44-0.106-0.813-0.318-1.116
				c-0.213-0.304-0.54-0.455-0.983-0.455h-0.759v4.246c0,0.128,0.022,0.216,0.067,0.262c0.046,0.046,0.131,0.068,0.258,0.068h1.193
				v0.441H74.835z M78.115,73.472h0.908c0.244,0,0.452-0.05,0.624-0.151c0.171-0.101,0.305-0.248,0.399-0.44
				c0.095-0.193,0.163-0.404,0.203-0.635c0.041-0.229,0.062-0.501,0.062-0.813c0-0.624-0.095-1.093-0.285-1.405
				c-0.189-0.313-0.524-0.469-1.003-0.469H78.44c-0.127,0-0.212,0.022-0.258,0.068c-0.045,0.047-0.067,0.134-0.067,0.263V73.472z"/>
			<path fill="#FFFFFF" d="M91.238,78.931v-0.441h0.948c0.117,0,0.201-0.029,0.251-0.089c0.05-0.061,0.074-0.154,0.074-0.283v-8.229
				c0-0.129-0.022-0.216-0.067-0.263c-0.045-0.046-0.131-0.068-0.258-0.068h-0.948v-0.441h4.555v0.441h-0.949
				c-0.127,0-0.212,0.022-0.258,0.068c-0.045,0.047-0.067,0.134-0.067,0.263v8.229c0,0.129,0.024,0.223,0.074,0.283
				c0.05,0.06,0.134,0.089,0.251,0.089h1.369c0.208,0,0.411-0.06,0.61-0.179c0.198-0.119,0.37-0.267,0.515-0.441
				c0.145-0.174,0.28-0.377,0.407-0.606c0.126-0.229,0.228-0.438,0.305-0.627s0.143-0.37,0.196-0.545
				c0.045-0.146,0.095-0.34,0.149-0.579c0.054-0.238,0.1-0.436,0.136-0.592l0.054-0.234h0.435l-0.109,4.245H91.238z"/>
			<path fill="#FFFFFF" d="M106.827,78.931v-0.441h0.948c0.127,0,0.213-0.022,0.258-0.068s0.067-0.134,0.067-0.262v-8.271
				c0-0.129-0.022-0.216-0.067-0.263c-0.045-0.046-0.131-0.068-0.258-0.068h-0.948v-0.441h5.042c0.561,0,1.09,0.12,1.587,0.358
				c0.496,0.239,0.931,0.565,1.301,0.979c0.371,0.414,0.664,0.924,0.881,1.53c0.218,0.606,0.326,1.259,0.326,1.957
				c0,0.938-0.186,1.788-0.556,2.551c-0.371,0.763-0.868,1.359-1.491,1.792c-0.624,0.432-1.307,0.647-2.048,0.647H106.827z
				 M110.107,78.159c0,0.128,0.022,0.216,0.067,0.262c0.046,0.046,0.131,0.068,0.258,0.068h1.207c0.587,0,1.07-0.202,1.45-0.606
				c0.379-0.404,0.569-1.001,0.569-1.792v-4.135c0-0.79-0.19-1.388-0.569-1.792c-0.38-0.404-0.863-0.606-1.45-0.606h-1.207
				c-0.127,0-0.212,0.022-0.258,0.068c-0.045,0.047-0.067,0.134-0.067,0.263V78.159z"/>
			<path fill="#FFFFFF" d="M134.264,73.224l0.108-4.107h8.134l0.108,4.107h-0.434c-0.037-0.312-0.132-0.744-0.285-1.295
				c-0.117-0.404-0.265-0.779-0.44-1.124c-0.177-0.345-0.4-0.639-0.671-0.882c-0.271-0.243-0.552-0.365-0.841-0.365
				c-0.153,0-0.275,0.041-0.366,0.124c-0.09,0.083-0.135,0.197-0.135,0.345v8.133c0,0.128,0.022,0.216,0.067,0.262
				s0.131,0.068,0.258,0.068h1.084v0.441h-4.826v-0.441h1.085c0.126,0,0.212-0.022,0.258-0.068c0.045-0.046,0.067-0.134,0.067-0.262
				v-8.133c0-0.147-0.045-0.262-0.136-0.345c-0.09-0.083-0.212-0.124-0.366-0.124c-0.289,0-0.569,0.122-0.84,0.365
				c-0.271,0.243-0.495,0.537-0.671,0.882c-0.177,0.345-0.323,0.72-0.44,1.124c-0.063,0.238-0.12,0.468-0.17,0.688
				s-0.079,0.377-0.088,0.469l-0.027,0.138H134.264z"/>
			<path fill="#FFFFFF" d="M150.504,78.931v-0.441h0.948c0.127,0,0.213-0.022,0.258-0.068s0.067-0.134,0.067-0.262v-8.271
				c0-0.129-0.022-0.216-0.067-0.263c-0.045-0.046-0.131-0.068-0.258-0.068h-0.948v-0.441h4.47c0.993,0,1.793,0.216,2.4,0.648
				c0.607,0.432,0.911,1.024,0.911,1.777c0,0.635-0.243,1.138-0.729,1.51s-1.12,0.6-1.9,0.683v0.096
				c0.343,0.064,0.639,0.152,0.888,0.263c0.248,0.11,0.475,0.26,0.678,0.447c0.203,0.188,0.359,0.439,0.468,0.752
				s0.162,0.675,0.162,1.089v1.529c0,0.387,0.167,0.579,0.501,0.579c0.192,0,0.334-0.197,0.423-0.593
				c0.089-0.395,0.134-0.877,0.134-1.447h0.434c0,0.341-0.014,0.644-0.04,0.91c-0.027,0.267-0.077,0.521-0.149,0.765
				c-0.072,0.244-0.167,0.448-0.285,0.613c-0.117,0.166-0.273,0.294-0.467,0.387c-0.195,0.092-0.419,0.138-0.672,0.138
				c-0.578,0-1.037-0.175-1.376-0.524c-0.339-0.349-0.508-0.863-0.508-1.543v-1.71c0-0.44-0.106-0.813-0.318-1.116
				c-0.213-0.304-0.54-0.455-0.983-0.455h-0.759v4.246c0,0.128,0.022,0.216,0.067,0.262c0.046,0.046,0.131,0.068,0.258,0.068h1.193
				v0.441H150.504z M153.784,73.472h0.908c0.244,0,0.452-0.05,0.624-0.151c0.171-0.101,0.305-0.248,0.399-0.44
				c0.095-0.193,0.163-0.404,0.203-0.635c0.041-0.229,0.062-0.501,0.062-0.813c0-0.624-0.095-1.093-0.285-1.405
				c-0.189-0.313-0.524-0.469-1.003-0.469h-0.583c-0.127,0-0.212,0.022-0.258,0.068c-0.045,0.047-0.067,0.134-0.067,0.263V73.472z"
				/>
			<path fill="#FFFFFF" d="M166.663,78.931v-0.441h0.461c0.271,0,0.51-0.11,0.718-0.33c0.208-0.221,0.366-0.482,0.475-0.786
				l2.86-8.505h0.569l2.901,8.918c0.153,0.469,0.42,0.703,0.8,0.703h0.542v0.441h-4.761v-0.441h0.977c0.1,0,0.185-0.043,0.258-0.131
				c0.072-0.087,0.108-0.19,0.108-0.31c0-0.101-0.027-0.233-0.082-0.399l-0.436-1.338h-2.865l-0.284,0.847
				c-0.096,0.259-0.144,0.495-0.144,0.707c0,0.157,0.063,0.301,0.187,0.431c0.125,0.129,0.296,0.193,0.513,0.193h0.638v0.441
				H166.663z M169.356,75.815h2.536l-1.247-3.834L169.356,75.815z"/>
			<path fill="#FFFFFF" d="M181.466,69.558v-0.441h4.681v0.441h-0.678c-0.136,0-0.246,0.032-0.332,0.098s-0.128,0.148-0.128,0.251
				s0.018,0.205,0.053,0.308l2.034,5.857l1.574-4.978c0.088-0.276,0.131-0.512,0.131-0.706c0-0.202-0.063-0.392-0.188-0.567
				c-0.125-0.175-0.314-0.263-0.567-0.263h-0.678v-0.441h3.641v0.441h-0.42c-0.605,0-1.039,0.418-1.302,1.254l-2.671,8.367h-0.569
				l-3.063-8.822c-0.1-0.303-0.229-0.512-0.387-0.627c-0.158-0.114-0.387-0.172-0.685-0.172H181.466z"/>
			<path fill="#FFFFFF" d="M198.655,78.931v-0.441h0.948c0.127,0,0.213-0.022,0.258-0.068s0.067-0.134,0.067-0.262v-8.271
				c0-0.129-0.022-0.216-0.067-0.263c-0.045-0.046-0.131-0.068-0.258-0.068h-0.948v-0.441h7.618l0.081,3.198h-0.434
				c-0.091-0.588-0.271-1.112-0.542-1.571c-0.443-0.79-0.985-1.186-1.627-1.186h-1.491c-0.127,0-0.212,0.022-0.258,0.068
				c-0.045,0.047-0.067,0.134-0.067,0.263v3.804h0.691c0.244,0,0.472-0.104,0.685-0.31c0.212-0.207,0.377-0.455,0.495-0.744
				c0.117-0.29,0.176-0.572,0.176-0.849h0.434v4.314h-0.434c0-0.275-0.059-0.56-0.176-0.854c-0.118-0.294-0.283-0.544-0.495-0.751
				c-0.213-0.207-0.44-0.311-0.685-0.311h-0.691v3.971c0,0.128,0.022,0.216,0.067,0.262c0.046,0.046,0.131,0.068,0.258,0.068h1.478
				c0.262,0,0.509-0.063,0.739-0.192s0.427-0.299,0.589-0.511c0.163-0.211,0.299-0.418,0.407-0.62s0.198-0.413,0.271-0.634
				c0.054-0.146,0.105-0.34,0.155-0.579c0.05-0.238,0.084-0.437,0.102-0.593l0.027-0.234h0.434l-0.081,3.805H198.655z"/>
			<path fill="#FFFFFF" d="M214.515,78.931v-0.441h0.948c0.117,0,0.201-0.029,0.251-0.089c0.05-0.061,0.074-0.154,0.074-0.283
				v-8.229c0-0.129-0.022-0.216-0.067-0.263c-0.045-0.046-0.131-0.068-0.258-0.068h-0.948v-0.441h4.555v0.441h-0.949
				c-0.127,0-0.212,0.022-0.258,0.068c-0.045,0.047-0.067,0.134-0.067,0.263v8.229c0,0.129,0.024,0.223,0.074,0.283
				c0.05,0.06,0.134,0.089,0.251,0.089h1.369c0.208,0,0.411-0.06,0.61-0.179c0.198-0.119,0.37-0.267,0.515-0.441
				c0.145-0.174,0.28-0.377,0.407-0.606c0.126-0.229,0.228-0.438,0.305-0.627s0.143-0.37,0.196-0.545
				c0.045-0.146,0.095-0.34,0.149-0.579c0.054-0.238,0.1-0.436,0.136-0.592l0.054-0.234h0.435l-0.109,4.245H214.515z"/>
			<path fill="#FFFFFF" d="M230.104,78.931v-0.441h0.948c0.127,0,0.213-0.022,0.258-0.068s0.067-0.134,0.067-0.262v-8.271
				c0-0.129-0.022-0.216-0.067-0.263c-0.045-0.046-0.131-0.068-0.258-0.068h-0.948v-0.441h7.618l0.081,3.198h-0.434
				c-0.091-0.588-0.271-1.112-0.542-1.571c-0.443-0.79-0.985-1.186-1.627-1.186h-1.491c-0.127,0-0.212,0.022-0.258,0.068
				c-0.045,0.047-0.067,0.134-0.067,0.263v3.804h0.691c0.244,0,0.472-0.104,0.685-0.31c0.212-0.207,0.377-0.455,0.495-0.744
				c0.117-0.29,0.176-0.572,0.176-0.849h0.434v4.314h-0.434c0-0.275-0.059-0.56-0.176-0.854c-0.118-0.294-0.283-0.544-0.495-0.751
				c-0.213-0.207-0.44-0.311-0.685-0.311h-0.691v3.971c0,0.128,0.022,0.216,0.067,0.262c0.046,0.046,0.131,0.068,0.258,0.068h1.478
				c0.262,0,0.509-0.063,0.739-0.192s0.427-0.299,0.589-0.511c0.163-0.211,0.299-0.418,0.407-0.62s0.198-0.413,0.271-0.634
				c0.054-0.146,0.105-0.34,0.155-0.579c0.05-0.238,0.084-0.437,0.102-0.593l0.027-0.234h0.434l-0.081,3.805H230.104z"/>
			<path fill="#FFFFFF" d="M245.965,78.931v-0.441h0.948c0.127,0,0.213-0.022,0.258-0.068s0.067-0.134,0.067-0.262v-8.271
				c0-0.129-0.022-0.216-0.067-0.263c-0.045-0.046-0.131-0.068-0.258-0.068h-0.948v-0.441h4.47c0.993,0,1.793,0.216,2.4,0.648
				c0.607,0.432,0.911,1.024,0.911,1.777c0,0.635-0.243,1.138-0.729,1.51s-1.12,0.6-1.9,0.683v0.096
				c0.343,0.064,0.639,0.152,0.888,0.263c0.248,0.11,0.475,0.26,0.678,0.447c0.203,0.188,0.359,0.439,0.468,0.752
				s0.162,0.675,0.162,1.089v1.529c0,0.387,0.167,0.579,0.501,0.579c0.192,0,0.334-0.197,0.423-0.593
				c0.089-0.395,0.134-0.877,0.134-1.447h0.434c0,0.341-0.014,0.644-0.04,0.91c-0.027,0.267-0.077,0.521-0.149,0.765
				c-0.072,0.244-0.167,0.448-0.285,0.613c-0.117,0.166-0.273,0.294-0.467,0.387c-0.195,0.092-0.419,0.138-0.672,0.138
				c-0.578,0-1.037-0.175-1.376-0.524c-0.339-0.349-0.508-0.863-0.508-1.543v-1.71c0-0.44-0.106-0.813-0.318-1.116
				c-0.213-0.304-0.54-0.455-0.983-0.455h-0.759v4.246c0,0.128,0.022,0.216,0.067,0.262c0.046,0.046,0.131,0.068,0.258,0.068h1.193
				v0.441H245.965z M249.245,73.472h0.908c0.244,0,0.452-0.05,0.624-0.151c0.171-0.101,0.305-0.248,0.399-0.44
				c0.095-0.193,0.163-0.404,0.203-0.635c0.041-0.229,0.062-0.501,0.062-0.813c0-0.624-0.095-1.093-0.285-1.405
				c-0.189-0.313-0.524-0.469-1.003-0.469h-0.583c-0.127,0-0.212,0.022-0.258,0.068c-0.045,0.047-0.067,0.134-0.067,0.263V73.472z"
				/>
			<path fill="#FFFFFF" d="M262.746,74.713h0.435c0.089,0.515,0.23,1.011,0.427,1.488c0.196,0.479,0.423,0.905,0.682,1.282
				c0.258,0.377,0.561,0.68,0.907,0.91c0.348,0.229,0.703,0.344,1.068,0.344c0.317,0,0.592-0.036,0.823-0.11
				c0.231-0.073,0.412-0.165,0.544-0.275c0.131-0.11,0.235-0.238,0.313-0.386c0.077-0.146,0.127-0.285,0.149-0.413
				c0.022-0.129,0.034-0.258,0.034-0.387c0-0.238-0.082-0.455-0.247-0.647c-0.164-0.193-0.394-0.391-0.688-0.593l-2.9-1.902
				c-1.013-0.661-1.519-1.498-1.519-2.509c0-0.459,0.071-0.863,0.213-1.213c0.142-0.349,0.339-0.625,0.592-0.827
				s0.53-0.354,0.832-0.455c0.301-0.101,0.625-0.151,0.971-0.151c0.635,0,1.278,0.229,1.932,0.689
				c0.217,0.165,0.38,0.248,0.489,0.248c0.163,0,0.263-0.105,0.299-0.317l0.082-0.372h0.434l0.136,3.584h-0.434
				c-0.254-0.974-0.662-1.782-1.224-2.426c-0.563-0.644-1.17-0.965-1.822-0.965c-0.943,0-1.414,0.385-1.414,1.154
				c0,0.521,0.422,1.049,1.266,1.58l2.917,1.912c0.355,0.249,0.64,0.594,0.853,1.032s0.319,0.89,0.319,1.351
				c0,0.35-0.063,0.689-0.19,1.021s-0.308,0.634-0.543,0.909c-0.236,0.276-0.553,0.497-0.951,0.662s-0.847,0.248-1.345,0.248
				c-0.753,0-1.374-0.202-1.863-0.606c-0.199-0.165-0.345-0.275-0.435-0.331c-0.091-0.055-0.175-0.082-0.252-0.082
				c-0.183,0-0.29,0.156-0.323,0.468l-0.063,0.441h-0.42L262.746,74.713z"/>
		</g>
	</g>
</g>
</svg>
