<?xml version="1.0" encoding="utf-8"?>
<!-- Generator: Adobe Illustrator 16.0.0, SVG Export Plug-In . SVG Version: 6.00 Build 0)  -->
<!DOCTYPE svg PUBLIC "-//W3C//DTD SVG 1.1//EN" "http://www.w3.org/Graphics/SVG/1.1/DTD/svg11.dtd">
<svg version="1.1" id="Layer_1" xmlns="http://www.w3.org/2000/svg" xmlns:xlink="http://www.w3.org/1999/xlink" x="0px" y="0px"
	 width="270px" height="84.684px" viewBox="0 0 270 84.684" enable-background="new 0 0 270 84.684" xml:space="preserve">
<g opacity="0.25">
	<g>
		<path fill="#FFFFFF" d="M265.719,52.21H136.104c-1.157-6.441-4.48-11.815-7.396-15.946c7.146-6.609,15.005-14.291,21.794-20.364
			c10.182-9.11,15.005-11.969,18.935-11.611c2.322,0.179,3.216,2.144,2.858,4.287c-0.536,2.858-0.715,6.073,2.144,6.609
			c3.395,0.715,6.967-3.037,7.682-6.788C183.19,3.396,179.797,0,174.259,0h-0.179c-7.859,0-15.541,5.359-24.83,13.756
			c-6.788,6.252-14.29,14.112-21.615,20.722c-2.679-3.752-5.716-8.217-7.146-11.969c4.467-3.036,11.97-7.324,13.755-12.861
			c1.608-5.181-1.429-8.396-5.181-8.574c-9.109-0.536-16.256,6.966-17.685,13.04c-0.714,3.394-0.178,7.681,0.715,10.718
			c-3.572,1.786-8.396,4.109-11.968,6.252C92.444,35.371,86.37,40.551,85.3,46.268c-0.509,2.706,0.193,4.645,1.501,5.942H4.283
			v0.833h83.567c1.365,0.861,3.08,1.263,4.771,1.263c2.469,0.054,5.229-0.416,8.093-1.263h22.922c0.468,3.093,0.463,6.3-0.11,9.658
			c-0.692,3.714-2.23,7.27-4.389,10.321h-73.23v0.832h72.616c-3.968,5.158-9.772,8.676-16.255,8.676
			c-5.358,0-8.217-1.966-9.646-3.752c-1.07-1.429-0.893-2.321-1.429-2.321c-0.535,0.356-0.179,1.786,0.358,3.036
			c0.893,1.787,4.286,5.181,11.075,5.181c11.25,0.237,21.005-4.082,27.138-10.819h94.33v-0.832h-93.598
			c2.729-3.241,4.647-6.992,5.534-11.035c0.623-3.169,0.613-6.151,0.2-8.944h129.487V52.21z M119.775,13.935
			c1.071-5.18,5.358-10.004,8.753-10.004h0.179c2.68,0,3.93,2.501,2.68,5.717c-1.43,4.466-7.86,8.932-11.254,11.075
			C119.597,18.757,119.239,16.793,119.775,13.935z M102.269,48.41c-3.929,0-5.358-1.964-5.358-4.822
			c0.179-3.037,3.037-6.788,5.896-9.468c2.5-2.322,6.609-5.358,9.824-7.503c1.429,4.287,4.287,10.004,6.609,14.112
			c-6.966,5.717-13.397,7.681-16.792,7.681H102.269z M103.233,52.21c5.935-2.16,12.087-5.756,16.899-9.694
			c1.608,3.128,2.77,6.344,3.372,9.694H103.233z"/>
	</g>
</g>
<g>
	<g>
		<path fill="#FFFFFF" d="M1.711,33.227c0-1.732,0.154-3.362,0.464-4.89s0.754-2.884,1.332-4.069
			c0.579-1.186,1.304-2.12,2.176-2.804c0.871-0.685,1.829-1.026,2.872-1.026c0.603,0,1.161,0.148,1.674,0.444
			c0.514,0.297,1.055,0.707,1.625,1.231c0.375,0.342,0.652,0.513,0.831,0.513c0.212,0,0.392-0.216,0.538-0.649l0.44-1.266h0.806
			v10.498h-0.781c-0.359-2.94-1.003-5.288-1.932-7.044c-0.929-1.755-1.996-2.633-3.201-2.633c-0.782,0-1.426,0.524-1.931,1.572
			c-0.506,1.049-0.758,2.714-0.758,4.993v10.259c0,1.186,0.089,2.217,0.269,3.095c0.179,0.878,0.411,1.562,0.696,2.052
			s0.595,0.85,0.929,1.077s0.681,0.342,1.039,0.342c1.923,0,3.364-1.242,4.326-3.728c0.473-1.208,0.79-2.94,0.953-5.197h0.88
			c-0.131,2.279-0.465,4.172-1.002,5.676c-0.506,1.368-1.194,2.434-2.065,3.197c-0.872,0.764-1.902,1.146-3.092,1.146
			c-0.913,0-1.76-0.239-2.542-0.718s-1.45-1.129-2.004-1.949c-0.555-0.82-1.026-1.772-1.418-2.855
			c-0.391-1.082-0.676-2.239-0.855-3.471S1.711,34.526,1.711,33.227z"/>
		<path fill="#FFFFFF" d="M17.646,45.4v-1.095h1.711c0.228,0,0.383-0.057,0.464-0.171c0.081-0.113,0.122-0.33,0.122-0.649V22.968
			c0-0.318-0.041-0.535-0.122-0.649c-0.081-0.113-0.236-0.171-0.464-0.171h-1.711v-1.094h8.06c1.79,0,3.233,0.535,4.328,1.606
			c1.094,1.072,1.642,2.542,1.642,4.411c0,1.573-0.438,2.821-1.314,3.745c-0.876,0.923-2.019,1.487-3.428,1.692v0.239
			c0.619,0.16,1.152,0.376,1.602,0.649c0.447,0.273,0.855,0.645,1.222,1.111c0.366,0.468,0.647,1.089,0.843,1.864
			c0.196,0.775,0.294,1.676,0.294,2.701v3.796c0,0.957,0.301,1.436,0.902,1.436c0.348,0,0.603-0.489,0.763-1.47
			s0.241-2.177,0.241-3.591h0.782c0,0.844-0.024,1.596-0.073,2.257c-0.049,0.662-0.139,1.294-0.27,1.898
			c-0.13,0.604-0.301,1.111-0.513,1.521s-0.493,0.729-0.844,0.957s-0.754,0.342-1.209,0.342c-1.043,0-1.87-0.433-2.481-1.299
			c-0.61-0.866-0.916-2.143-0.916-3.83v-4.24c0-1.095-0.192-2.018-0.574-2.77c-0.384-0.753-0.975-1.129-1.772-1.129h-1.369v10.532
			c0,0.319,0.041,0.536,0.123,0.649c0.081,0.114,0.235,0.171,0.464,0.171h2.151V45.4H17.646z M23.561,31.859h1.638
			c0.44,0,0.814-0.125,1.125-0.377c0.309-0.25,0.55-0.615,0.721-1.094s0.293-1.003,0.366-1.573c0.073-0.569,0.11-1.242,0.11-2.018
			c0-1.55-0.171-2.713-0.514-3.487c-0.342-0.775-0.945-1.163-1.809-1.163h-1.051c-0.229,0-0.383,0.058-0.464,0.171
			c-0.082,0.114-0.123,0.331-0.123,0.649V31.859z"/>
		<path fill="#FFFFFF" d="M35.488,45.4v-1.095h1.711c0.228,0,0.383-0.057,0.464-0.171c0.081-0.113,0.122-0.33,0.122-0.649V22.968
			c0-0.318-0.041-0.535-0.122-0.649c-0.081-0.113-0.236-0.171-0.464-0.171h-1.711v-1.094H43.7v1.094h-1.711
			c-0.229,0-0.383,0.058-0.464,0.171c-0.082,0.114-0.123,0.331-0.123,0.649v20.518c0,0.319,0.041,0.536,0.123,0.649
			c0.081,0.114,0.235,0.171,0.464,0.171H43.7V45.4H35.488z"/>
		<path fill="#FFFFFF" d="M46.927,34.937h0.781c0.161,1.277,0.417,2.508,0.771,3.693s0.763,2.245,1.229,3.18
			c0.465,0.936,1.011,1.688,1.637,2.257c0.626,0.57,1.269,0.855,1.927,0.855c0.572,0,1.066-0.091,1.483-0.273
			s0.743-0.411,0.98-0.685s0.425-0.592,0.563-0.957c0.14-0.364,0.229-0.706,0.271-1.026c0.04-0.318,0.062-0.638,0.062-0.957
			c0-0.593-0.149-1.129-0.445-1.607c-0.297-0.479-0.711-0.969-1.241-1.471l-5.23-4.719c-1.825-1.642-2.737-3.715-2.737-6.224
			c0-1.14,0.128-2.143,0.384-3.009s0.611-1.55,1.067-2.052c0.455-0.501,0.955-0.877,1.498-1.129c0.544-0.25,1.128-0.376,1.752-0.376
			c1.144,0,2.305,0.57,3.481,1.71c0.393,0.41,0.687,0.615,0.883,0.615c0.294,0,0.474-0.262,0.539-0.786l0.147-0.923h0.782
			l0.244,8.891h-0.782c-0.458-2.416-1.193-4.423-2.206-6.019c-1.014-1.596-2.108-2.394-3.285-2.394c-1.7,0-2.55,0.954-2.55,2.863
			c0,1.295,0.761,2.602,2.283,3.92l5.259,4.743c0.642,0.619,1.153,1.473,1.537,2.562c0.383,1.089,0.575,2.206,0.575,3.352
			c0,0.866-0.115,1.71-0.343,2.53c-0.229,0.821-0.556,1.573-0.979,2.257c-0.425,0.685-0.996,1.231-1.715,1.642
			s-1.526,0.615-2.425,0.615c-1.356,0-2.477-0.501-3.359-1.504c-0.359-0.411-0.621-0.685-0.783-0.821
			c-0.163-0.137-0.314-0.205-0.454-0.205c-0.329,0-0.523,0.388-0.583,1.163l-0.112,1.094h-0.758L46.927,34.937z"/>
		<path fill="#FFFFFF" d="M61.396,45.4v-1.095h1.711c0.228,0,0.383-0.057,0.464-0.171c0.081-0.113,0.122-0.33,0.122-0.649V22.968
			c0-0.318-0.041-0.535-0.122-0.649c-0.081-0.113-0.236-0.171-0.464-0.171h-1.711v-1.094h8.847c1.756,0,3.189,0.593,4.3,1.777
			c1.109,1.186,1.665,2.714,1.665,4.583c0,1.892-0.562,3.448-1.685,4.667c-1.122,1.22-2.571,1.83-4.348,1.83H67.31v9.574
			c0,0.319,0.041,0.536,0.123,0.649c0.081,0.114,0.235,0.171,0.464,0.171h2.151V45.4H61.396z M67.31,32.816h2.42
			c0.44,0,0.814-0.137,1.124-0.41s0.551-0.667,0.722-1.18s0.293-1.077,0.366-1.692c0.073-0.616,0.11-1.322,0.11-2.12
			c0-1.664-0.171-2.958-0.514-3.882c-0.342-0.923-0.945-1.385-1.809-1.385h-1.833c-0.229,0-0.383,0.058-0.464,0.171
			c-0.082,0.114-0.123,0.331-0.123,0.649V32.816z"/>
		<path fill="#FFFFFF" d="M78.554,45.4v-1.095h1.711c0.228,0,0.383-0.057,0.464-0.171c0.081-0.113,0.122-0.33,0.122-0.649V22.968
			c0-0.318-0.041-0.535-0.122-0.649c-0.081-0.113-0.236-0.171-0.464-0.171h-1.711v-1.094h8.212v1.094h-1.711
			c-0.229,0-0.383,0.058-0.464,0.171c-0.082,0.114-0.123,0.331-0.123,0.649v20.518c0,0.319,0.041,0.536,0.123,0.649
			c0.081,0.114,0.235,0.171,0.464,0.171h1.711V45.4H78.554z"/>
		<path fill="#FFFFFF" d="M88.965,45.4v-1.095c0.88,0,1.613-0.33,2.2-0.993c0.587-0.662,0.88-1.518,0.88-2.568V26.12
			c0-0.251-0.015-0.433-0.044-0.547c-0.028-0.114-0.094-0.286-0.195-0.515l-1.008-2.021c-0.163-0.319-0.339-0.548-0.525-0.685
			c-0.188-0.137-0.477-0.205-0.867-0.205h-0.44v-1.094h5.434l7.813,15.663V25.713c0-1.052-0.293-1.908-0.88-2.571
			c-0.586-0.662-1.319-0.994-2.199-0.994v-1.094h7.137v1.094c-0.88,0-1.613,0.331-2.199,0.991c-0.587,0.662-0.88,1.517-0.88,2.565
			v20.312h-0.93l-9.132-18.304h-0.106v13.036c0,1.049,0.293,1.904,0.88,2.565c0.587,0.662,1.319,0.992,2.199,0.992V45.4H88.965z"/>
		<path fill="#FFFFFF" d="M126.335,45.4v-1.095c0.717,0,1.32-0.256,1.809-0.769c0.489-0.514,0.733-1.282,0.733-2.309V22.968
			c0-0.318-0.041-0.535-0.122-0.649c-0.082-0.113-0.236-0.171-0.464-0.171h-1.956v-1.094h5.804l4.497,16.831l3.289-16.831h6.208
			v1.094h-1.711c-0.229,0-0.383,0.058-0.465,0.171c-0.081,0.114-0.122,0.331-0.122,0.649v20.518c0,0.319,0.041,0.536,0.122,0.649
			c0.082,0.114,0.236,0.171,0.465,0.171h1.711V45.4h-8.212v-1.095h1.71c0.229,0,0.383-0.057,0.465-0.171
			c0.081-0.114,0.122-0.331,0.122-0.652V23.962l-4.295,21.849h-0.911l-4.986-18.773h-0.171v14.191c0,1.026,0.245,1.795,0.733,2.309
			c0.489,0.513,1.092,0.769,1.809,0.769V45.4H126.335z"/>
		<path fill="#FFFFFF" d="M148.576,22.147v-1.094h7.919v1.094h-1.564c-0.229,0-0.383,0.058-0.464,0.171
			c-0.082,0.114-0.123,0.331-0.123,0.649V38.63c0,2.098,0.285,3.625,0.855,4.582s1.45,1.437,2.64,1.437
			c1.206,0,2.204-0.587,2.994-1.762c0.79-1.174,1.186-2.593,1.186-4.257V25.225c0-1.025-0.244-1.795-0.733-2.308
			c-0.488-0.513-1.092-0.77-1.809-0.77v-1.094h6.062v1.094c-0.717,0-1.319,0.257-1.809,0.77c-0.488,0.513-0.733,1.282-0.733,2.308
			v13.063c0,2.211-0.525,4.052-1.576,5.522c-1.051,1.47-2.473,2.205-4.265,2.205c-0.896,0-1.711-0.159-2.444-0.479
			s-1.345-0.752-1.833-1.3c-0.489-0.547-0.896-1.196-1.223-1.948c-0.326-0.753-0.562-1.545-0.708-2.377
			c-0.147-0.832-0.221-1.704-0.221-2.616V22.968c0-0.318-0.041-0.535-0.122-0.649c-0.081-0.113-0.236-0.171-0.464-0.171H148.576z"/>
		<path fill="#FFFFFF" d="M167.836,45.4v-1.095h1.711c0.211,0,0.362-0.073,0.452-0.222c0.089-0.148,0.134-0.382,0.134-0.701V22.968
			c0-0.318-0.041-0.535-0.122-0.649c-0.081-0.113-0.236-0.171-0.464-0.171h-1.711v-1.094h8.212v1.094h-1.711
			c-0.229,0-0.383,0.058-0.464,0.171c-0.082,0.114-0.123,0.331-0.123,0.649v20.415c0,0.319,0.045,0.553,0.135,0.701
			s0.24,0.222,0.452,0.222h2.469c0.375,0,0.741-0.147,1.1-0.444c0.358-0.296,0.668-0.661,0.929-1.094s0.505-0.935,0.733-1.505
			c0.229-0.569,0.411-1.088,0.55-1.556c0.139-0.467,0.257-0.918,0.354-1.351c0.081-0.364,0.171-0.844,0.269-1.437
			c0.099-0.593,0.18-1.082,0.245-1.471l0.098-0.581h0.782L181.669,45.4H167.836z"/>
		<path fill="#FFFFFF" d="M184.212,45.4v-1.095h1.711c0.228,0,0.383-0.057,0.464-0.171c0.081-0.113,0.122-0.33,0.122-0.649V22.968
			c0-0.318-0.041-0.535-0.122-0.649c-0.081-0.113-0.236-0.171-0.464-0.171h-1.711v-1.094h8.577c0.974,0,1.874,0.239,2.701,0.718
			s1.493,1.174,1.996,2.086s0.755,1.915,0.755,3.009c0,0.775-0.121,1.493-0.362,2.154c-0.242,0.662-0.563,1.22-0.966,1.676
			c-0.403,0.456-0.83,0.832-1.28,1.129c-0.451,0.296-0.942,0.547-1.474,0.752v0.205c0.565,0.114,1.131,0.325,1.696,0.633
			s1.097,0.701,1.594,1.18c0.498,0.479,0.9,1.083,1.209,1.813s0.463,1.517,0.463,2.359c0,1.391-0.274,2.594-0.823,3.607
			c-0.548,1.015-1.254,1.772-2.118,2.274c-0.864,0.501-1.836,0.752-2.916,0.752H184.212z M190.126,32.133h2.249
			c0.456,0,0.839-0.125,1.148-0.376s0.538-0.616,0.685-1.095s0.253-1.014,0.317-1.607c0.065-0.592,0.099-1.321,0.099-2.188
			c0-1.504-0.188-2.667-0.563-3.487c-0.375-0.821-0.889-1.231-1.54-1.231h-1.809c-0.229,0-0.383,0.058-0.464,0.171
			c-0.082,0.114-0.123,0.331-0.123,0.649V32.133z M190.126,43.485c0,0.319,0.041,0.536,0.123,0.649
			c0.081,0.114,0.235,0.171,0.464,0.171h1.662c0.424,0,0.786-0.085,1.088-0.256c0.301-0.171,0.57-0.456,0.807-0.855
			c0.235-0.398,0.411-0.968,0.525-1.709c0.113-0.741,0.171-1.647,0.171-2.719s-0.058-1.978-0.171-2.719
			c-0.114-0.74-0.29-1.311-0.525-1.71c-0.236-0.398-0.506-0.684-0.807-0.854c-0.302-0.171-0.664-0.257-1.088-0.257h-2.249V43.485z"
			/>
		<path fill="#FFFFFF" d="M201.564,45.4v-1.095h1.711c0.228,0,0.383-0.057,0.464-0.171c0.081-0.113,0.122-0.33,0.122-0.649V22.968
			c0-0.318-0.041-0.535-0.122-0.649c-0.081-0.113-0.236-0.171-0.464-0.171h-1.711v-1.094H215.3l0.147,7.933h-0.782
			c-0.163-1.458-0.489-2.758-0.978-3.898c-0.799-1.96-1.776-2.94-2.934-2.94h-2.688c-0.229,0-0.383,0.058-0.464,0.171
			c-0.082,0.114-0.123,0.331-0.123,0.649v9.438h1.247c0.439,0,0.852-0.257,1.234-0.77s0.68-1.129,0.892-1.847
			s0.318-1.419,0.318-2.103h0.782v10.703h-0.782c0-0.685-0.106-1.391-0.318-2.12s-0.509-1.351-0.892-1.864
			c-0.383-0.513-0.795-0.77-1.234-0.77h-1.247v9.849c0,0.319,0.041,0.536,0.123,0.649c0.081,0.114,0.235,0.171,0.464,0.171h2.664
			c0.473,0,0.917-0.159,1.332-0.479c0.416-0.318,0.771-0.74,1.063-1.265s0.537-1.037,0.733-1.539
			c0.195-0.501,0.358-1.026,0.488-1.573c0.098-0.364,0.191-0.843,0.281-1.436s0.15-1.083,0.184-1.471l0.049-0.581h0.782
			l-0.146,9.438H201.564z"/>
		<path fill="#FFFFFF" d="M218.429,45.4v-1.095h1.711c0.228,0,0.383-0.057,0.464-0.171c0.081-0.113,0.122-0.33,0.122-0.649V22.968
			c0-0.318-0.041-0.535-0.122-0.649c-0.081-0.113-0.236-0.171-0.464-0.171h-1.711v-1.094h8.06c1.79,0,3.233,0.535,4.328,1.606
			c1.094,1.072,1.642,2.542,1.642,4.411c0,1.573-0.438,2.821-1.314,3.745c-0.876,0.923-2.019,1.487-3.428,1.692v0.239
			c0.619,0.16,1.152,0.376,1.602,0.649c0.447,0.273,0.855,0.645,1.222,1.111c0.366,0.468,0.647,1.089,0.843,1.864
			c0.196,0.775,0.294,1.676,0.294,2.701v3.796c0,0.957,0.301,1.436,0.902,1.436c0.348,0,0.603-0.489,0.763-1.47
			s0.241-2.177,0.241-3.591h0.782c0,0.844-0.024,1.596-0.073,2.257c-0.049,0.662-0.139,1.294-0.27,1.898
			c-0.13,0.604-0.301,1.111-0.513,1.521s-0.493,0.729-0.844,0.957s-0.754,0.342-1.209,0.342c-1.043,0-1.87-0.433-2.481-1.299
			c-0.61-0.866-0.916-2.143-0.916-3.83v-4.24c0-1.095-0.192-2.018-0.574-2.77c-0.384-0.753-0.975-1.129-1.772-1.129h-1.369v10.532
			c0,0.319,0.041,0.536,0.123,0.649c0.081,0.114,0.235,0.171,0.464,0.171h2.151V45.4H218.429z M224.343,31.859h1.638
			c0.44,0,0.814-0.125,1.125-0.377c0.309-0.25,0.55-0.615,0.721-1.094s0.293-1.003,0.366-1.573c0.073-0.569,0.11-1.242,0.11-2.018
			c0-1.55-0.171-2.713-0.514-3.487c-0.342-0.775-0.945-1.163-1.809-1.163h-1.051c-0.229,0-0.383,0.058-0.464,0.171
			c-0.082,0.114-0.123,0.331-0.123,0.649V31.859z"/>
		<path fill="#FFFFFF" d="M236.271,45.4v-1.095h1.711c0.228,0,0.383-0.057,0.464-0.171c0.081-0.113,0.122-0.33,0.122-0.649V22.968
			c0-0.318-0.041-0.535-0.122-0.649c-0.081-0.113-0.236-0.171-0.464-0.171h-1.711v-1.094h8.06c1.79,0,3.233,0.535,4.328,1.606
			c1.094,1.072,1.642,2.542,1.642,4.411c0,1.573-0.438,2.821-1.314,3.745c-0.876,0.923-2.019,1.487-3.428,1.692v0.239
			c0.619,0.16,1.152,0.376,1.602,0.649c0.447,0.273,0.855,0.645,1.222,1.111c0.366,0.468,0.647,1.089,0.843,1.864
			c0.196,0.775,0.294,1.676,0.294,2.701v3.796c0,0.957,0.301,1.436,0.902,1.436c0.348,0,0.603-0.489,0.763-1.47
			s0.241-2.177,0.241-3.591h0.782c0,0.844-0.024,1.596-0.073,2.257c-0.049,0.662-0.139,1.294-0.27,1.898
			c-0.13,0.604-0.301,1.111-0.513,1.521s-0.493,0.729-0.844,0.957s-0.754,0.342-1.209,0.342c-1.043,0-1.87-0.433-2.481-1.299
			c-0.61-0.866-0.916-2.143-0.916-3.83v-4.24c0-1.095-0.192-2.018-0.574-2.77c-0.384-0.753-0.975-1.129-1.772-1.129h-1.369v10.532
			c0,0.319,0.041,0.536,0.123,0.649c0.081,0.114,0.235,0.171,0.464,0.171h2.151V45.4H236.271z M242.185,31.859h1.638
			c0.44,0,0.814-0.125,1.125-0.377c0.309-0.25,0.55-0.615,0.721-1.094s0.293-1.003,0.366-1.573c0.073-0.569,0.11-1.242,0.11-2.018
			c0-1.55-0.171-2.713-0.514-3.487c-0.342-0.775-0.945-1.163-1.809-1.163h-1.051c-0.229,0-0.383,0.058-0.464,0.171
			c-0.082,0.114-0.123,0.331-0.123,0.649V31.859z"/>
		<path fill="#FFFFFF" d="M253.136,22.147v-1.094h7.674v1.094h-0.703c-0.234,0-0.41,0.115-0.525,0.346
			c-0.116,0.23-0.174,0.484-0.174,0.761c0,0.368,0.049,0.691,0.146,0.967l3.234,9.852l2.263-7.896
			c0.23-0.728,0.346-1.377,0.346-1.945c0-0.569-0.106-1.059-0.319-1.469c-0.213-0.409-0.548-0.614-1.004-0.614h-0.684v-1.094h6.072
			v1.094h-0.733c-0.554,0-1.019,0.245-1.393,0.735c-0.375,0.49-0.652,1.077-0.831,1.761l-3.3,11.251v7.591
			c0,0.319,0.04,0.536,0.122,0.649c0.081,0.114,0.236,0.171,0.464,0.171h1.564V45.4h-7.919v-1.095h1.564
			c0.228,0,0.383-0.057,0.464-0.171c0.082-0.113,0.123-0.33,0.123-0.649v-7.283l-4.155-12.55c-0.195-0.593-0.399-0.992-0.61-1.197
			c-0.212-0.205-0.489-0.308-0.831-0.308H253.136z"/>
	</g>
	<g>
		<g>
			<path fill="#FFFFFF" d="M32.849,59.096v-0.373h3.769v0.373h-0.338c-0.109,0-0.196,0.039-0.263,0.117
				c-0.065,0.079-0.099,0.177-0.099,0.294c0,0.087,0.02,0.185,0.058,0.294l1.482,4.513l1.1-3.759l-0.255-0.783
				c-0.085-0.257-0.196-0.434-0.332-0.53c-0.136-0.098-0.332-0.146-0.588-0.146h-0.198v-0.373H41v0.373h-0.571
				c-0.101,0-0.188,0.035-0.262,0.104c-0.074,0.07-0.11,0.148-0.11,0.234c0,0.078,0.011,0.164,0.034,0.258l1.477,4.541l1.067-3.834
				c0.055-0.163,0.082-0.372,0.082-0.629c0-0.171-0.049-0.325-0.146-0.466c-0.097-0.14-0.255-0.209-0.472-0.209h-0.583v-0.373h3.15
				v0.373h-0.361c-0.521,0-0.894,0.354-1.118,1.061l-1.97,7.074h-0.489l-1.908-5.909l-1.729,5.909h-0.489l-2.425-7.378
				c-0.085-0.256-0.211-0.446-0.378-0.57c-0.168-0.125-0.41-0.187-0.729-0.187H32.849z"/>
			<path fill="#FFFFFF" d="M50.82,64.491c-0.187-0.536-0.28-1.076-0.28-1.62c0-0.543,0.094-1.083,0.28-1.619
				s0.435-1.003,0.746-1.399c0.311-0.396,0.68-0.718,1.106-0.967c0.428-0.249,0.866-0.373,1.317-0.373
				c0.45,0,0.89,0.124,1.317,0.373c0.427,0.249,0.796,0.571,1.106,0.967c0.311,0.396,0.56,0.863,0.746,1.399
				s0.279,1.076,0.279,1.619c0,0.544-0.093,1.084-0.279,1.62s-0.436,1.003-0.746,1.398c-0.311,0.396-0.68,0.719-1.106,0.968
				c-0.428,0.248-0.867,0.373-1.317,0.373c-0.451,0-0.89-0.125-1.317-0.373c-0.427-0.249-0.796-0.571-1.106-0.968
				C51.255,65.494,51.007,65.027,50.82,64.491z M52.521,64.62c0,0.8,0.129,1.373,0.385,1.719c0.257,0.346,0.618,0.519,1.084,0.519
				s0.827-0.173,1.084-0.519c0.256-0.346,0.385-0.919,0.385-1.719v-3.497c0-0.8-0.129-1.373-0.385-1.719
				c-0.257-0.346-0.618-0.519-1.084-0.519s-0.827,0.173-1.084,0.519c-0.256,0.346-0.385,0.919-0.385,1.719V64.62z"/>
			<path fill="#FFFFFF" d="M64.339,67.021v-0.373h0.815c0.109,0,0.183-0.02,0.222-0.059c0.039-0.038,0.059-0.112,0.059-0.221v-6.993
				c0-0.108-0.02-0.183-0.059-0.222c-0.039-0.038-0.112-0.058-0.222-0.058h-0.815v-0.373h3.843c0.854,0,1.542,0.183,2.064,0.548
				c0.521,0.365,0.782,0.866,0.782,1.503c0,0.536-0.209,0.962-0.627,1.276c-0.417,0.314-0.962,0.507-1.634,0.577v0.081
				c0.295,0.055,0.55,0.129,0.764,0.222c0.213,0.094,0.407,0.22,0.582,0.379s0.31,0.371,0.402,0.635
				c0.094,0.265,0.14,0.571,0.14,0.921v1.294c0,0.326,0.144,0.489,0.431,0.489c0.166,0,0.287-0.167,0.364-0.501
				c0.076-0.334,0.114-0.742,0.114-1.224h0.373c0,0.287-0.012,0.544-0.035,0.769c-0.023,0.226-0.065,0.441-0.128,0.647
				s-0.144,0.379-0.245,0.519c-0.101,0.14-0.234,0.248-0.401,0.326c-0.168,0.078-0.359,0.116-0.577,0.116
				c-0.497,0-0.892-0.147-1.183-0.442c-0.292-0.295-0.438-0.73-0.438-1.306v-1.445c0-0.372-0.092-0.688-0.273-0.943
				c-0.183-0.257-0.465-0.385-0.846-0.385h-0.652v3.59c0,0.108,0.02,0.183,0.059,0.221c0.038,0.039,0.112,0.059,0.221,0.059h1.026
				v0.373H64.339z M67.159,62.405h0.781c0.209,0,0.388-0.043,0.536-0.128c0.147-0.086,0.262-0.21,0.344-0.373
				c0.081-0.163,0.14-0.342,0.175-0.536c0.034-0.194,0.052-0.424,0.052-0.688c0-0.528-0.081-0.925-0.244-1.189
				c-0.163-0.264-0.451-0.396-0.862-0.396h-0.502c-0.108,0-0.183,0.02-0.221,0.058c-0.039,0.039-0.059,0.113-0.059,0.222V62.405z"/>
			<path fill="#FFFFFF" d="M78.441,67.021v-0.373h0.815c0.102,0,0.173-0.025,0.216-0.075c0.043-0.051,0.064-0.131,0.064-0.239
				v-6.958c0-0.108-0.02-0.183-0.059-0.222c-0.039-0.038-0.112-0.058-0.222-0.058h-0.815v-0.373h3.916v0.373h-0.816
				c-0.108,0-0.183,0.02-0.221,0.058c-0.039,0.039-0.059,0.113-0.059,0.222v6.958c0,0.108,0.021,0.188,0.064,0.239
				c0.042,0.05,0.114,0.075,0.215,0.075h1.178c0.179,0,0.354-0.051,0.524-0.151s0.318-0.226,0.442-0.373
				c0.125-0.147,0.241-0.318,0.35-0.513c0.109-0.194,0.196-0.371,0.263-0.53c0.065-0.159,0.122-0.313,0.169-0.46
				c0.039-0.125,0.081-0.288,0.128-0.49c0.047-0.201,0.086-0.368,0.117-0.501l0.046-0.198h0.373l-0.093,3.59H78.441z"/>
			<path fill="#FFFFFF" d="M91.844,67.021v-0.373h0.815c0.109,0,0.183-0.02,0.222-0.059c0.039-0.038,0.059-0.112,0.059-0.221v-6.993
				c0-0.108-0.02-0.183-0.059-0.222c-0.039-0.038-0.112-0.058-0.222-0.058h-0.815v-0.373h4.335c0.482,0,0.937,0.101,1.364,0.303
				c0.427,0.202,0.8,0.478,1.118,0.827c0.319,0.35,0.571,0.781,0.758,1.294s0.28,1.064,0.28,1.655c0,0.792-0.16,1.511-0.479,2.156
				c-0.318,0.645-0.745,1.149-1.281,1.515s-1.123,0.548-1.761,0.548H91.844z M94.664,66.368c0,0.108,0.02,0.183,0.059,0.221
				c0.038,0.039,0.112,0.059,0.221,0.059h1.038c0.505,0,0.92-0.171,1.247-0.513c0.326-0.342,0.489-0.847,0.489-1.515v-3.497
				c0-0.668-0.163-1.173-0.489-1.515c-0.327-0.342-0.742-0.513-1.247-0.513h-1.038c-0.108,0-0.183,0.02-0.221,0.058
				c-0.039,0.039-0.059,0.113-0.059,0.222V66.368z"/>
			<path fill="#FFFFFF" d="M115.433,62.195l0.094-3.473h6.992l0.094,3.473h-0.373c-0.031-0.264-0.113-0.629-0.245-1.096
				c-0.101-0.342-0.228-0.658-0.379-0.949c-0.151-0.292-0.344-0.54-0.577-0.746c-0.232-0.206-0.474-0.309-0.722-0.309
				c-0.133,0-0.237,0.034-0.315,0.104c-0.077,0.07-0.116,0.167-0.116,0.291v6.877c0,0.108,0.02,0.183,0.059,0.221
				c0.038,0.039,0.112,0.059,0.221,0.059h0.933v0.373h-4.148v-0.373h0.932c0.109,0,0.183-0.02,0.222-0.059
				c0.039-0.038,0.059-0.112,0.059-0.221v-6.877c0-0.124-0.039-0.221-0.117-0.291c-0.077-0.07-0.183-0.104-0.314-0.104
				c-0.249,0-0.489,0.103-0.723,0.309s-0.425,0.454-0.577,0.746c-0.151,0.291-0.277,0.607-0.378,0.949
				c-0.055,0.202-0.104,0.396-0.146,0.583c-0.042,0.187-0.067,0.318-0.075,0.396l-0.023,0.116H115.433z"/>
			<path fill="#FFFFFF" d="M129.395,67.021v-0.373h0.815c0.109,0,0.183-0.02,0.222-0.059c0.039-0.038,0.059-0.112,0.059-0.221
				v-6.993c0-0.108-0.02-0.183-0.059-0.222c-0.039-0.038-0.112-0.058-0.222-0.058h-0.815v-0.373h3.843
				c0.854,0,1.542,0.183,2.064,0.548c0.521,0.365,0.782,0.866,0.782,1.503c0,0.536-0.209,0.962-0.627,1.276
				c-0.417,0.314-0.962,0.507-1.634,0.577v0.081c0.295,0.055,0.55,0.129,0.764,0.222c0.213,0.094,0.407,0.22,0.582,0.379
				s0.31,0.371,0.402,0.635c0.094,0.265,0.14,0.571,0.14,0.921v1.294c0,0.326,0.144,0.489,0.431,0.489
				c0.166,0,0.287-0.167,0.364-0.501c0.076-0.334,0.114-0.742,0.114-1.224h0.373c0,0.287-0.012,0.544-0.035,0.769
				c-0.023,0.226-0.065,0.441-0.128,0.647s-0.144,0.379-0.245,0.519c-0.101,0.14-0.234,0.248-0.401,0.326
				c-0.168,0.078-0.359,0.116-0.577,0.116c-0.497,0-0.892-0.147-1.183-0.442c-0.292-0.295-0.438-0.73-0.438-1.306v-1.445
				c0-0.372-0.092-0.688-0.273-0.943c-0.183-0.257-0.465-0.385-0.846-0.385h-0.652v3.59c0,0.108,0.02,0.183,0.059,0.221
				c0.038,0.039,0.112,0.059,0.221,0.059h1.026v0.373H129.395z M132.215,62.405h0.781c0.209,0,0.388-0.043,0.536-0.128
				c0.147-0.086,0.262-0.21,0.344-0.373c0.081-0.163,0.14-0.342,0.175-0.536c0.034-0.194,0.052-0.424,0.052-0.688
				c0-0.528-0.081-0.925-0.244-1.189c-0.163-0.264-0.451-0.396-0.862-0.396h-0.502c-0.108,0-0.183,0.02-0.221,0.058
				c-0.039,0.039-0.059,0.113-0.059,0.222V62.405z"/>
			<path fill="#FFFFFF" d="M143.287,67.021v-0.373h0.396c0.232,0,0.438-0.093,0.617-0.279s0.314-0.408,0.408-0.665l2.459-7.19h0.489
				l2.494,7.54c0.133,0.396,0.361,0.595,0.688,0.595h0.466v0.373h-4.093v-0.373h0.839c0.086,0,0.159-0.037,0.222-0.11
				c0.063-0.074,0.093-0.161,0.093-0.262c0-0.086-0.022-0.198-0.069-0.338l-0.375-1.132h-2.463l-0.245,0.717
				c-0.082,0.219-0.123,0.418-0.123,0.598c0,0.133,0.054,0.254,0.161,0.363c0.106,0.109,0.254,0.164,0.44,0.164h0.548v0.373H143.287
				z M145.603,64.387h2.181l-1.072-3.242L145.603,64.387z"/>
			<path fill="#FFFFFF" d="M156.014,59.096v-0.373h4.024v0.373h-0.583c-0.116,0-0.212,0.027-0.285,0.082
				c-0.073,0.056-0.11,0.126-0.11,0.213s0.016,0.173,0.046,0.26l1.749,4.952l1.354-4.208c0.075-0.233,0.112-0.433,0.112-0.597
				c0-0.172-0.054-0.332-0.161-0.479c-0.107-0.148-0.271-0.223-0.487-0.223h-0.583v-0.373h3.13v0.373h-0.361
				c-0.521,0-0.894,0.354-1.119,1.061l-2.296,7.074h-0.489l-2.634-7.459c-0.086-0.257-0.196-0.434-0.332-0.53
				c-0.136-0.098-0.332-0.146-0.589-0.146H156.014z"/>
			<path fill="#FFFFFF" d="M170.791,67.021v-0.373h0.815c0.109,0,0.183-0.02,0.222-0.059c0.039-0.038,0.059-0.112,0.059-0.221
				v-6.993c0-0.108-0.02-0.183-0.059-0.222c-0.039-0.038-0.112-0.058-0.222-0.058h-0.815v-0.373h6.55l0.07,2.704h-0.373
				c-0.078-0.498-0.233-0.94-0.467-1.329c-0.381-0.668-0.847-1.002-1.398-1.002h-1.282c-0.108,0-0.183,0.02-0.221,0.058
				c-0.039,0.039-0.059,0.113-0.059,0.222v3.217h0.595c0.209,0,0.405-0.088,0.588-0.263s0.324-0.384,0.426-0.629
				c0.101-0.245,0.151-0.483,0.151-0.717h0.373v3.647h-0.373c0-0.232-0.051-0.474-0.151-0.722c-0.102-0.249-0.243-0.461-0.426-0.636
				s-0.379-0.262-0.588-0.262h-0.595v3.356c0,0.108,0.02,0.183,0.059,0.221c0.038,0.039,0.112,0.059,0.221,0.059h1.271
				c0.226,0,0.438-0.054,0.636-0.163c0.198-0.108,0.367-0.252,0.507-0.432c0.14-0.178,0.256-0.353,0.35-0.524
				c0.093-0.17,0.171-0.35,0.233-0.536c0.046-0.124,0.091-0.287,0.134-0.489c0.042-0.202,0.071-0.369,0.087-0.501l0.023-0.198h0.373
				l-0.07,3.217H170.791z"/>
			<path fill="#FFFFFF" d="M184.427,67.021v-0.373h0.815c0.102,0,0.173-0.025,0.216-0.075c0.043-0.051,0.064-0.131,0.064-0.239
				v-6.958c0-0.108-0.02-0.183-0.059-0.222c-0.039-0.038-0.112-0.058-0.222-0.058h-0.815v-0.373h3.916v0.373h-0.816
				c-0.108,0-0.183,0.02-0.221,0.058c-0.039,0.039-0.059,0.113-0.059,0.222v6.958c0,0.108,0.021,0.188,0.064,0.239
				c0.042,0.05,0.114,0.075,0.215,0.075h1.178c0.179,0,0.354-0.051,0.524-0.151s0.318-0.226,0.442-0.373
				c0.125-0.147,0.241-0.318,0.35-0.513c0.109-0.194,0.196-0.371,0.263-0.53c0.065-0.159,0.122-0.313,0.169-0.46
				c0.039-0.125,0.081-0.288,0.128-0.49c0.047-0.201,0.086-0.368,0.117-0.501l0.046-0.198h0.373l-0.093,3.59H184.427z"/>
			<path fill="#FFFFFF" d="M197.83,67.021v-0.373h0.815c0.109,0,0.183-0.02,0.222-0.059c0.039-0.038,0.059-0.112,0.059-0.221v-6.993
				c0-0.108-0.02-0.183-0.059-0.222c-0.039-0.038-0.112-0.058-0.222-0.058h-0.815v-0.373h6.55l0.07,2.704h-0.373
				c-0.078-0.498-0.233-0.94-0.467-1.329c-0.381-0.668-0.847-1.002-1.398-1.002h-1.282c-0.108,0-0.183,0.02-0.221,0.058
				c-0.039,0.039-0.059,0.113-0.059,0.222v3.217h0.595c0.209,0,0.405-0.088,0.588-0.263s0.324-0.384,0.426-0.629
				c0.101-0.245,0.151-0.483,0.151-0.717h0.373v3.647h-0.373c0-0.232-0.051-0.474-0.151-0.722c-0.102-0.249-0.243-0.461-0.426-0.636
				s-0.379-0.262-0.588-0.262h-0.595v3.356c0,0.108,0.02,0.183,0.059,0.221c0.038,0.039,0.112,0.059,0.221,0.059h1.271
				c0.226,0,0.438-0.054,0.636-0.163c0.198-0.108,0.367-0.252,0.507-0.432c0.14-0.178,0.256-0.353,0.35-0.524
				c0.093-0.17,0.171-0.35,0.233-0.536c0.046-0.124,0.091-0.287,0.134-0.489c0.042-0.202,0.071-0.369,0.087-0.501l0.023-0.198h0.373
				l-0.07,3.217H197.83z"/>
			<path fill="#FFFFFF" d="M211.466,67.021v-0.373h0.815c0.109,0,0.183-0.02,0.222-0.059c0.039-0.038,0.059-0.112,0.059-0.221
				v-6.993c0-0.108-0.02-0.183-0.059-0.222c-0.039-0.038-0.112-0.058-0.222-0.058h-0.815v-0.373h3.843
				c0.854,0,1.542,0.183,2.064,0.548c0.521,0.365,0.782,0.866,0.782,1.503c0,0.536-0.209,0.962-0.627,1.276
				c-0.417,0.314-0.962,0.507-1.634,0.577v0.081c0.295,0.055,0.55,0.129,0.764,0.222c0.213,0.094,0.407,0.22,0.582,0.379
				s0.31,0.371,0.402,0.635c0.094,0.265,0.14,0.571,0.14,0.921v1.294c0,0.326,0.144,0.489,0.431,0.489
				c0.166,0,0.287-0.167,0.364-0.501c0.076-0.334,0.114-0.742,0.114-1.224h0.373c0,0.287-0.012,0.544-0.035,0.769
				c-0.023,0.226-0.065,0.441-0.128,0.647s-0.144,0.379-0.245,0.519c-0.101,0.14-0.234,0.248-0.401,0.326
				c-0.168,0.078-0.359,0.116-0.577,0.116c-0.497,0-0.892-0.147-1.183-0.442c-0.292-0.295-0.438-0.73-0.438-1.306v-1.445
				c0-0.372-0.092-0.688-0.273-0.943c-0.183-0.257-0.465-0.385-0.846-0.385h-0.652v3.59c0,0.108,0.02,0.183,0.059,0.221
				c0.038,0.039,0.112,0.059,0.221,0.059h1.026v0.373H211.466z M214.286,62.405h0.781c0.209,0,0.388-0.043,0.536-0.128
				c0.147-0.086,0.262-0.21,0.344-0.373c0.081-0.163,0.14-0.342,0.175-0.536c0.034-0.194,0.052-0.424,0.052-0.688
				c0-0.528-0.081-0.925-0.244-1.189c-0.163-0.264-0.451-0.396-0.862-0.396h-0.502c-0.108,0-0.183,0.02-0.221,0.058
				c-0.039,0.039-0.059,0.113-0.059,0.222V62.405z"/>
			<path fill="#FFFFFF" d="M225.894,63.454h0.373c0.076,0.436,0.199,0.854,0.367,1.259c0.169,0.404,0.363,0.766,0.586,1.084
				c0.222,0.318,0.481,0.575,0.78,0.77s0.604,0.291,0.919,0.291c0.272,0,0.508-0.031,0.707-0.094
				c0.199-0.062,0.354-0.14,0.468-0.232c0.113-0.094,0.202-0.202,0.269-0.326c0.066-0.125,0.109-0.241,0.129-0.35
				c0.02-0.109,0.029-0.218,0.029-0.327c0-0.201-0.071-0.384-0.212-0.547c-0.142-0.164-0.339-0.331-0.592-0.502l-2.494-1.608
				c-0.871-0.559-1.306-1.266-1.306-2.121c0-0.388,0.061-0.729,0.183-1.025c0.122-0.295,0.292-0.528,0.51-0.699
				c0.217-0.171,0.455-0.299,0.714-0.385c0.26-0.085,0.538-0.128,0.836-0.128c0.545,0,1.099,0.194,1.66,0.583
				c0.187,0.14,0.327,0.21,0.421,0.21c0.14,0,0.226-0.09,0.257-0.269l0.07-0.314h0.373l0.116,3.03h-0.373
				c-0.218-0.824-0.568-1.508-1.052-2.052s-1.006-0.815-1.566-0.815c-0.811,0-1.216,0.325-1.216,0.976
				c0,0.441,0.362,0.887,1.089,1.336l2.507,1.617c0.307,0.211,0.551,0.502,0.733,0.873s0.274,0.752,0.274,1.142
				c0,0.296-0.055,0.583-0.164,0.862c-0.108,0.28-0.265,0.536-0.467,0.77s-0.475,0.42-0.817,0.56s-0.729,0.21-1.156,0.21
				c-0.647,0-1.181-0.171-1.602-0.513c-0.172-0.141-0.297-0.233-0.374-0.28c-0.078-0.046-0.15-0.069-0.217-0.069
				c-0.156,0-0.249,0.132-0.278,0.396l-0.053,0.373h-0.361L225.894,63.454z"/>
		</g>
	</g>
</g>
</svg>
